<svg xmlns="http://www.w3.org/2000/svg" width="47" height="47" viewBox="0 0 47 47" fill="none"><path fill-rule="evenodd" clip-rule="evenodd" d="M21.7285 11.5728C15.9154 11.5728 11.252 16.2071 11.252 21.9884C11.252 27.7676 15.9134 32.4039 21.7285 32.4039C22.4867 32.4039 23.224 32.3211 23.9363 32.172L19.5686 23.0048C18.6063 20.9879 20.7225 18.8841 22.7512 19.8407L31.9721 24.1831C32.1241 23.4749 32.2053 22.7439 32.2053 21.9881C32.2053 16.2088 27.5436 11.5728 21.7285 11.5728Z" fill="#005CCC"></path><path fill-rule="evenodd" clip-rule="evenodd" d="M21.7285 0.610107C9.82506 0.610107 0.225098 10.1542 0.225098 21.9883C0.225098 33.8225 9.82506 43.3666 21.7285 43.3666C24.178 43.3666 26.5274 42.9566 28.7184 42.2111L26.0169 36.5373C24.6547 36.937 23.2175 37.1544 21.7283 37.1544C13.3323 37.1544 6.47361 30.3356 6.47361 21.9885C6.47361 13.6414 13.3323 6.82266 21.7283 6.82266C30.1243 6.82266 36.983 13.6414 36.983 21.9885C36.983 23.4691 36.7643 24.8979 36.3623 26.2522L42.0692 28.9379C42.819 26.7595 43.2315 24.4238 43.2315 21.9888C43.2315 10.1546 33.6336 0.610526 21.7281 0.610526L21.7285 0.610107Z" fill="#005CCC"></path><path fill-rule="evenodd" clip-rule="evenodd" d="M26.7546 26.9851L36.2378 46.8891L37.9979 39.888C38.2124 39.0389 38.8789 38.3742 39.7329 38.161L46.775 36.4112L26.7546 26.9851Z" fill="#005CCC"></path></svg>