<svg xmlns="http://www.w3.org/2000/svg" width="60" height="41" viewBox="0 0 60 41" fill="none"><path d="M39.1875 0C35.2442 0 31.3895 1.18419 28.1108 3.40282C24.8321 5.62145 22.2767 8.77487 20.7677 12.4643C19.2586 16.1538 18.8638 20.2135 19.6331 24.1302C20.4024 28.0469 22.3013 31.6446 25.0896 34.4684C27.8779 37.2922 31.4304 39.2152 35.2979 39.9943C39.1654 40.7734 43.1742 40.3735 46.8173 38.8453C50.4604 37.3171 53.5742 34.7291 55.7649 31.4087C57.9557 28.0883 59.125 24.1846 59.125 20.1911C59.1177 14.8384 57.0148 9.70696 53.2774 5.92198C49.54 2.13701 44.473 0.00736788 39.1875 0ZM45.4575 26.5409C45.0708 26.932 44.5466 27.1517 44 27.1517C43.4534 27.1517 42.9292 26.932 42.5425 26.5409L37.8125 21.6672C37.4256 21.2758 37.208 20.7449 37.2075 20.1911V11.8362C37.2075 11.2822 37.4248 10.7509 37.8116 10.3592C38.1984 9.9675 38.723 9.74744 39.27 9.74744C39.817 9.74744 40.3416 9.9675 40.7284 10.3592C41.1152 10.7509 41.3325 11.2822 41.3325 11.8362V19.3278L45.54 23.5888C45.9155 23.9914 46.1178 24.5286 46.1023 25.0821C46.0868 25.6357 45.8549 26.1604 45.4575 26.5409Z" fill="#005CCC"></path><path d="M14.4375 22.28H2.0625C1.51549 22.28 0.990886 22.0599 0.604092 21.6682C0.217299 21.2765 0 20.7452 0 20.1913C0 19.6373 0.217299 19.106 0.604092 18.7143C0.990886 18.3226 1.51549 18.1025 2.0625 18.1025H14.4375C14.9845 18.1025 15.5091 18.3226 15.8959 18.7143C16.2827 19.106 16.5 19.6373 16.5 20.1913C16.5 20.7452 16.2827 21.2765 15.8959 21.6682C15.5091 22.0599 14.9845 22.28 14.4375 22.28Z" fill="#005CCC"></path><path d="M17.1875 11.1401H10.3125C9.76549 11.1401 9.24089 10.9201 8.85409 10.5283C8.4673 10.1366 8.25 9.60535 8.25 9.05138C8.25 8.49742 8.4673 7.96614 8.85409 7.57442C9.24089 7.18271 9.76549 6.96265 10.3125 6.96265H17.1875C17.7345 6.96265 18.2591 7.18271 18.6459 7.57442C19.0327 7.96614 19.25 8.49742 19.25 9.05138C19.25 9.60535 19.0327 10.1366 18.6459 10.5283C18.2591 10.9201 17.7345 11.1401 17.1875 11.1401Z" fill="#005CCC"></path><path d="M17.1875 33.4199H10.3125C9.76549 33.4199 9.24089 33.1998 8.85409 32.8081C8.4673 32.4164 8.25 31.8851 8.25 31.3312C8.25 30.7772 8.4673 30.2459 8.85409 29.8542C9.24089 29.4625 9.76549 29.2424 10.3125 29.2424H17.1875C17.7345 29.2424 18.2591 29.4625 18.6459 29.8542C19.0327 30.2459 19.25 30.7772 19.25 31.3312C19.25 31.8851 19.0327 32.4164 18.6459 32.8081C18.2591 33.1998 17.7345 33.4199 17.1875 33.4199Z" fill="#005CCC"></path></svg>