<svg xmlns="http://www.w3.org/2000/svg" width="40" height="48" viewBox="0 0 40 48" fill="none"><path fill-rule="evenodd" clip-rule="evenodd" d="M22.4238 16.4344C23.7777 17.9191 24.9955 19.3252 26.0773 20.663V36.1433H24.1986C22.3827 36.1433 21.3957 38.2641 22.5709 39.6401L26.5107 44.2533C23.7064 46.3511 20.0616 47.5986 16.0649 47.5317C4.5456 47.7246 -4.05597 37.0045 1.99042 26.4496C3.67322 23.5122 6.24533 20.2297 9.70636 16.4343C10.0487 16.5307 10.4096 16.5824 10.7822 16.5824H21.348C21.7205 16.5824 22.0814 16.5308 22.4238 16.4344ZM32.0668 47.3442L39.5221 38.6146C39.8213 38.2641 39.5717 37.7278 39.1093 37.7278H35.637V20.572C35.637 19.9789 35.1505 19.4953 34.5539 19.4953L28.754 19.4954C28.1574 19.4954 27.671 19.979 27.6709 20.5721V37.7278H24.1985C23.7362 37.7278 23.4867 38.2642 23.7857 38.6146L31.2411 47.3442C31.4575 47.5975 31.8506 47.5976 32.0668 47.3442ZM10.7821 14.9979H21.3479C22.6506 14.9979 23.7163 13.9383 23.7163 12.6435C23.7163 11.3484 22.6506 10.289 21.3479 10.289H10.7821C9.47945 10.289 8.41383 11.3484 8.41383 12.6434C8.41383 13.9385 9.47945 14.9979 10.7821 14.9979ZM16.6683 36.6973C15.0126 36.8969 13.1224 36.2638 12.6808 34.5032C12.5759 34.0793 12.1453 33.8203 11.719 33.9244C11.2926 34.0287 11.0321 34.4568 11.1368 34.8807C11.6253 36.8288 13.2901 37.9971 15.223 38.2596V39.3269C15.223 39.7644 15.5798 40.1191 16.0199 40.1191C16.46 40.1191 16.8168 39.7644 16.8168 39.3268V38.2737L16.855 38.2693C18.9006 38.0224 20.9788 36.8169 20.9237 34.5213C20.9205 34.3861 20.9123 34.2635 20.899 34.1544C20.5953 31.6668 18.3434 30.7956 16.1592 30.4391C15.4092 30.3167 14.6153 30.107 14.0228 29.7224C13.5228 29.3979 13.1639 28.9254 13.13 28.231C13.0662 26.924 14.1246 26.104 15.3106 25.8665C15.8454 25.7595 16.4284 25.7721 16.9558 25.905C17.8356 26.1268 18.6364 26.703 19.058 27.701C19.2281 28.1044 19.6951 28.2942 20.1008 28.125C20.5065 27.9558 20.6975 27.4916 20.5272 27.0882C19.8636 25.5169 18.4985 24.507 16.8168 24.2669V23.2028C16.8168 22.7653 16.46 22.4106 16.0199 22.4106C15.5798 22.4106 15.223 22.7653 15.223 23.2028V24.2793C15.148 24.291 15.0735 24.3043 14.9993 24.3191C13.0325 24.7128 11.4396 26.1982 11.5425 28.3052C11.6601 30.7157 13.811 31.6571 15.9039 31.9987C17.29 32.225 19.1169 32.6961 19.3176 34.34C19.3286 34.4309 19.3348 34.5034 19.3361 34.5583C19.3698 35.9616 17.8439 36.5554 16.6683 36.6973ZM11.0346 8.7045L8.7507 6.43395C7.80422 5.49297 7.80422 3.95306 8.7507 3.01208C9.55575 2.21173 10.8301 2.07645 11.7881 2.68776C12.5257 3.15825 13.5 2.75728 13.6867 1.90592C13.9253 0.819964 14.9035 9.90295e-05 16.065 0C17.2055 0 18.2003 0.799169 18.4434 1.90602C18.6303 2.75718 19.6044 3.15845 20.3419 2.68786C21.2997 2.07675 22.5743 2.21182 23.3793 3.01198C24.3258 3.95296 24.3258 5.49307 23.3793 6.43395L21.0955 8.7044L11.0346 8.7045Z" fill="#005CCC"></path></svg>