<?xml version="1.0" encoding="UTF-8"?>
<svg id="Layer_1" data-name="Layer 1" xmlns="http://www.w3.org/2000/svg" viewBox="0 0 39 39">
  <defs>
    <style>
      .cls-1 {
        fill: #88d2ff;
      }

      .cls-1, .cls-2, .cls-3 {
        stroke-width: 0px;
      }

      .cls-2 {
        fill: #c6e4fc;
      }

      .cls-3 {
        fill: #0095da;
      }
    </style>
  </defs>
  <g>
    <path class="cls-2" d="M5.86,2.99c0-.48-.58-1.33-.79-1.72-.39-.21-.84-.33-1.32-.33C2.2.94.94,2.2.94,3.75c0,.48.12.93.33,1.32.39.21,1.15,1.18,1.63,1.18,1.55,0,2.96-1.71,2.96-3.26Z"/>
    <path class="cls-2" d="M37.51,34.78c0-.48-.74-1.62-.95-2.02-.39-.21-.84-.33-1.32-.33-1.55,0-2.81,1.26-2.81,2.81,0,.48.12.93.33,1.32.39.21,1.02.85,1.49.85,1.55,0,3.26-1.08,3.26-2.63Z"/>
    <path class="cls-1" d="M6.57,35.25c0,1.55-1.26,2.81-2.82,2.81-1.07,0-2.01-.61-2.48-1.49-.21-.4-.33-.85-.33-1.32,0-1.56,1.26-2.82,2.81-2.82.48,0,.93.12,1.32.33.89.47,1.5,1.41,1.5,2.49Z"/>
    <path class="cls-2" d="M20.71,35.84c.04-.99.71-1.84,1.65-2.12,5.72-1.15,10.21-5.64,11.36-11.36.28-.94,1.13-1.61,2.12-1.65,1.16,9.13-7.67,15.13-15.13,15.13Z"/>
    <path class="cls-2" d="M18.29,1.85v1.23c0,1.02-.67,1.91-1.64,2.2-5.72,1.14-10.23,5.65-11.37,11.37-.29.97-1.18,1.64-2.2,1.64h-1.23c-.23,0-.41-.19-.38-.42C2.24,9.17,9.17,2.24,17.87,1.47c.23-.03.42.15.42.38Z"/>
    <path class="cls-1" d="M37.53,17.87c.03.23-.15.42-.38.42h-1.23c-1.02,0-1.91-.67-2.2-1.64-1.14-5.72-5.65-10.23-11.37-11.37-.97-.29-1.64-1.18-1.64-2.2v-1.23c0-.23.19-.41.42-.38,3.96.35,7.55,1.97,10.36,4.46,3.37,2.98,5.62,7.2,6.04,11.94Z"/>
    <path class="cls-2" d="M37.15,20.71h-1.22s-.06,0-.08,0c-1.19,7.79-7.35,13.94-15.13,15.13,0,.03,0,.06,0,.08v1.22c0,.23.2.41.42.39,8.7-.78,15.63-7.71,16.4-16.4.02-.23-.16-.42-.39-.42h0Z"/>
    <path class="cls-1" d="M18.29,35.92v1.23c0,.23-.19.41-.42.38-4.74-.42-8.96-2.67-11.94-6.04-2.49-2.81-4.11-6.4-4.46-10.36-.03-.23.15-.42.38-.42h1.23c1.02,0,1.91.67,2.2,1.64,1.14,5.72,5.65,10.23,11.37,11.37.97.29,1.64,1.18,1.64,2.2Z"/>
    <path class="cls-2" d="M5.07,1.27c.21.39.33.84.33,1.32,0,1.55-1.26,2.81-2.81,2.81-.48,0-.93-.12-1.32-.33.47.89,1.41,1.49,2.49,1.49,1.55,0,2.81-1.26,2.81-2.81,0-1.08-.61-2.01-1.49-2.49Z"/>
    <path class="cls-1" d="M38.06,3.75c0,1.56-1.26,2.82-2.81,2.82-1.08,0-2.02-.61-2.49-1.5-.21-.39-.33-.84-.33-1.32,0-1.55,1.26-2.81,2.82-2.81.47,0,.92.12,1.32.33.88.47,1.49,1.41,1.49,2.48Z"/>
    <path class="cls-2" d="M36.57,32.76c.21.39.33.84.33,1.32,0,1.55-1.26,2.81-2.81,2.81-.48,0-.93-.12-1.32-.33.47.89,1.41,1.49,2.49,1.49,1.55,0,2.81-1.26,2.81-2.81,0-1.08-.61-2.01-1.49-2.49h0Z"/>
  </g>
  <g>
    <path class="cls-3" d="M17.73,22.5c-.36,1.25-.75,2.57-1.28,4.57-.54.09-1.05.12-1.52.12-.54,0-1.08-.03-1.61-.12l1.76-5.56c.93.24,1.79.57,2.66.99h0Z"/>
    <path class="cls-3" d="M21.73,11.12c-.33-.03-.66-.06-.93-.09-.3-.03-.57-.03-.87-.03-.33,0-.66,0-.93.03-.27,0-.57.06-.87.09l-2.6,8.19c-1.79,0-3.73.39-5.71,1.25,5.47-.54,10.46,1.43,13.41,6.24l.03.09c.51.09,1.05.12,1.61.12s1.17-.03,1.76-.12l-4.93-15.77ZM18.32,19.66c.36-1.31.84-2.9,1.49-5.23.99,3.55,1.46,5.29,1.91,6.9-1.05-.75-2.21-1.31-3.41-1.67Z"/>
  </g>
</svg>