<svg width="13" height="13" viewBox="0 0 13 13" fill="none" xmlns="http://www.w3.org/2000/svg">
<path d="M12.6496 5.52587C12.6492 5.52559 12.6489 5.5252 12.6486 5.5249L7.34564 0.342619C7.11959 0.121577 6.81907 -6.10352e-05 6.49942 -6.10352e-05C6.17976 -6.10352e-05 5.87923 0.121577 5.6531 0.342594L0.352886 5.52227C0.351109 5.524 0.34923 5.52584 0.347554 5.5276C-0.116637 5.98383 -0.115825 6.72408 0.349839 7.17916C0.562562 7.38718 0.843433 7.50758 1.14388 7.52026C1.15617 7.52142 1.16848 7.52199 1.18087 7.52199H1.39212V11.3358C1.39212 12.0906 2.02054 12.7046 2.79287 12.7046H4.86757C5.07793 12.7046 5.24843 12.5379 5.24843 12.3324V9.34236C5.24843 8.99797 5.53516 8.71785 5.88756 8.71785H7.11126C7.46368 8.71785 7.75029 8.998 7.75029 9.34236V12.3324C7.75029 12.5379 7.92079 12.7046 8.13115 12.7046H10.2058C10.9783 12.7046 11.6066 12.0906 11.6066 11.3358V7.52202H11.8026C12.1222 7.52202 12.4227 7.40036 12.6489 7.17926C13.1151 6.72351 13.1153 5.9819 12.6496 5.52584L12.6496 5.52587ZM12.1102 6.65296C12.0699 6.69259 12.022 6.72401 11.9692 6.7454C11.9164 6.7668 11.8598 6.77775 11.8026 6.77763H11.2257C11.0153 6.77763 10.8449 6.94423 10.8449 7.14983V11.3358C10.8449 11.6801 10.5582 11.9602 10.2058 11.9602H8.51201V9.34236C8.51201 8.58758 7.88367 7.97343 7.11124 7.97343H5.88759C5.11515 7.97343 4.48673 8.58758 4.48673 9.34236V11.9602H2.79293C2.4406 11.9602 2.15387 11.6801 2.15387 11.3358V7.14981C2.15387 6.9442 1.98337 6.7776 1.77301 6.7776H1.20606C1.20012 6.77719 1.19417 6.77693 1.18821 6.77681C1.07474 6.77487 0.96833 6.73088 0.888603 6.65284C0.718994 6.48708 0.718994 6.21735 0.888603 6.0515C0.888679 6.0515 0.888679 6.0514 0.888781 6.0513L0.889085 6.051L6.19184 0.868921C6.23212 0.829294 6.28005 0.797878 6.33285 0.776495C6.38565 0.755112 6.44227 0.744187 6.49942 0.744355C6.61556 0.744355 6.72476 0.788549 6.80698 0.868921L12.1085 6.04996L12.111 6.05229C12.2798 6.21835 12.2794 6.48753 12.1102 6.65296Z" fill="white"/>
</svg>
