<?xml version="1.0" encoding="UTF-8"?>
<svg xmlns="http://www.w3.org/2000/svg" width="799" height="198" viewBox="0 0 799 198" fill="none">
  <path d="M96.3 140.5C91.9 155.8 87.2 171.9 80.6 196.3C74 197.4 67.8 197.8 62 197.8C55.4 197.8 48.9 197.4 42.3 196.3L63.8 128.5C75.1 131.4 85.7 135.4 96.3 140.5Z" fill="#F4831F"></path>
  <path d="M145.2 1.5C141.2 1.1 137.2 0.799994 133.9 0.399994C130.3 -6.10948e-06 127 0 123.3 0C119.3 0 115.3 -6.10948e-06 112 0.399994C108.7 0.399994 105.1 1.1 101.4 1.5L69.7 101.5C47.8 101.5 24.1 106.2 0 116.8C66.7 110.2 127.7 134.3 163.8 193L164.2 194.1C170.4 195.2 177 195.6 183.9 195.6C190.8 195.6 198.1 195.2 205.4 194.1L145.2 1.5ZM103.6 105.8C108 89.8 113.8 70.4 121.8 42C133.8 85.4 139.7 106.6 145.1 126.3C132.4 117.1 118.2 110.2 103.6 105.8Z" fill="#1C5698"></path>
  <path d="M249.8 133.9C240 131 231.9 127 226.5 121.1C221 115.6 218.1 106.9 218.1 95.9C218.1 82.4 222.8 71.8 232.7 64.2C242.6 56.6 255.7 52.5 272.5 52.5C279.4 52.5 286.4 53.2 293.3 54.3C300.2 55.4 306.8 57.6 314.1 59.8C313.7 64.5 313 69.3 311.5 74.4C310 79.5 308.2 83.9 306.4 87.5C302 85.7 297.3 84.2 292.2 82.8C287.1 81.3 281.6 80.6 275.8 80.6C269.6 80.6 264.9 81.7 261.6 83.5C258.3 85.3 256.5 88.2 256.5 92.6C256.5 96.6 257.6 99.2 260.1 101C262.7 102.5 265.9 104.3 270.3 105.4L285.6 109.8C290.7 111.3 295.1 113.1 299.1 114.9C303.1 117.1 306.4 119.6 309.3 122.6C312.2 125.5 314.4 129.5 315.9 133.9C317.4 138.3 318.5 143.7 318.5 150.3C318.5 156.9 317 163.1 314.5 168.9C311.6 174.7 307.6 179.5 302.5 183.9C297.4 188.3 290.8 191.6 283.2 193.7C275.5 196.3 267.2 197.3 257.7 197.3C253.3 197.3 249.3 197.3 246 196.9C242.4 196.5 239.1 196.2 235.8 195.4C232.5 194.7 229.2 193.9 226 193.2C222.7 192.5 219.4 191 215.4 189.6C215.8 184.9 216.5 179.8 218 175C219.5 170.3 220.9 165.2 223.1 160.8C228.9 163 234.4 164.8 239.9 165.9C245 167 250.8 167.7 256.3 167.7C258.9 167.7 261.4 167.3 264.3 167C267.2 166.6 270.1 165.9 272.3 164.4C274.9 163.3 277 161.8 278.5 160C280.3 158.2 281.1 155.6 281.1 152.7C281.1 148.3 279.6 145.4 277.1 143.6C274.5 141.8 270.9 140 266.2 138.5L249.8 133.9Z" fill="#1C5698"></path>
  <path d="M346.1 84.7H328.6L327.1 79.2L377.4 15.4H383.6V55.9H416.1C416.5 58.5 416.8 61 417.2 63.2C417.2 65.4 417.6 67.6 417.6 69.8C417.6 72.4 417.6 74.5 417.2 77.1C417.2 79.3 416.8 81.8 416.1 84.8H383.7V139.1C383.7 144.6 384.1 148.9 385.2 152.6C385.9 155.9 387.4 158.8 389.2 160.6C391 162.4 392.8 163.9 395.4 164.6C398 165.3 400.9 165.7 404.2 165.7C406.8 165.7 409.7 165.3 412.2 165C414.7 164.7 416.9 164.3 419.1 163.9C420.2 167.2 421.3 170.8 421.7 174.5C422.1 178.2 422.4 181.4 422.4 184.3C422.4 186.1 422.4 187.9 422.4 189.4C422.4 190.9 422 192 422 193.4C413.6 195.2 405.2 196.3 396.5 196.3C380.1 196.3 367.7 192.7 359.3 185C350.5 177.3 346.5 164.9 346.5 147.8V84.7H346.1Z" fill="#1C5698"></path>
  <path d="M558.4 91.6C555.5 83.2 551.5 76.3 546.4 70.4C540.9 64.6 534.7 59.8 527.1 56.5C519.4 53.2 510.7 51.4 501.2 51.4C489.9 51.4 480.4 53.2 472 57.2C464 61.2 456.7 66.3 451.2 72.9C445.4 79.5 441.4 87.5 438.4 96.2C435.5 105.3 434 114.8 434 125C434 135.6 435.1 145.1 438 153.8C440.6 162.6 444.9 170.2 450.8 176.4C456.6 183 464.3 187.7 473.4 191.4C482.9 195 493.8 196.9 506.6 196.9C524.1 196.9 539.8 194.3 553.7 188.9C553.3 183.1 552.6 178 551.1 172.9C549.6 168.2 547.8 163.8 546 160.1C540.2 162.3 534 164.1 527.8 165.2C521.6 166.3 515.4 167 509.2 167C498.3 167 489.5 164.4 482.6 159.7C475.7 155 472 146.9 471.3 136.4V136H561C561.4 133.8 561.7 131.3 562.1 128C562.5 124.4 562.5 121.1 562.5 117.8C562.4 108.4 561 99.6 558.4 91.6ZM471.6 110.2C472.7 101.1 475.2 94.2 480 89C484.7 83.9 491.7 81.3 500.4 81.3C508.1 81.3 514.3 84.2 518.6 89.3C523 94.8 525.2 101.3 525.5 110.1H471.6V110.2Z" fill="#1C5698"></path>
  <path d="M588 55.9C590.6 55.5 593.1 54.8 595.7 54.8C598.3 54.4 600.8 54.4 603.7 54.4C606.3 54.4 609.2 54.4 611.7 54.8C614.3 55.2 616.8 55.5 619.4 56.3C619.8 57 620.5 58.5 620.9 60.3C621.3 62.1 621.6 63.9 622 65.8C622.4 67.6 622.7 69.4 623.1 71.3C623.5 73.1 623.5 74.6 623.8 76C627.8 70.5 632.6 65.4 638.4 61C644.2 56.6 651.2 54.4 659.9 54.4C661.7 54.4 663.9 54.4 666.1 54.8C668.3 54.8 670.1 55.2 671.2 55.5C671.6 57.3 671.9 59.5 671.9 61.7C671.9 63.9 672.3 66.4 672.3 69C672.3 71.9 672.3 75.2 671.9 78.8C671.5 82.4 671.2 85.7 670.4 89C668.6 88.6 666.4 88.6 663.8 88.6C661.2 88.6 659.8 88.6 659.4 88.6C656.5 88.6 652.8 89 649.2 89.7C645.6 90.4 641.9 91.9 638.6 94.8C635.3 97.4 632.4 101.4 630.2 106.8C628 112.3 626.9 119.6 626.9 129.4V195.4C623.6 195.8 620.3 196.1 617.4 196.5C614.1 196.5 611.2 196.9 607.9 196.9C605 196.9 601.7 196.9 598.8 196.5C595.5 196.5 592.2 196.1 589 195.4V55.9H588Z" fill="#1C5698"></path>
  <path d="M782.7 66.4C772.5 57.3 757.9 52.9 739.3 52.9C732.7 52.9 725.4 53.6 717.4 54.7C709.4 55.8 701.7 58 693.7 60.5C693.7 66 694.4 71.1 695.5 75.1C696.6 79.1 698.4 83.5 701 88.2C711.6 84.6 722.2 82.7 731.6 82.7C736 82.7 740 83.1 743.6 83.4C747.2 83.8 750.2 84.9 752.7 86.3C755.3 87.8 757.1 89.9 758.5 92.5C760 95.4 760.7 98.7 760.7 103.1H761.1V106.4C754.9 106 749.1 105.7 744 105.7C736.7 105.7 729.8 106.4 722.5 107.9C715.6 109.7 709 111.9 703.2 115.6C697.4 118.9 692.6 123.6 689 129.5C685.4 135.3 683.5 142.3 683.5 151C683.5 159.4 685 166.7 687.9 172.5C691.2 178.3 695.2 183.4 700.7 187.1C706.2 190.8 712.7 193.7 720.4 195.1C728.1 196.9 736.4 197.7 745.6 197.7C756.9 197.7 767.1 197 775.9 195.1C784.7 193.6 792.3 191.5 798.5 189.6V109.4C798.4 89.8 793.3 75.2 782.7 66.4ZM760.5 130.6V166C758.7 166.4 756.1 166.7 753.6 167.1C751 167.5 748.1 167.8 745.6 167.8C743.4 167.8 740.9 167.8 737.6 167.4C734.7 167 731.8 166.3 728.8 165.2C726.2 164.1 723.7 162.3 721.9 159.7C720.1 157.5 719 153.9 719 149.1C719 141.8 721.6 137.1 726.7 133.8C731.8 130.5 738.7 129.1 747.5 129.1C749.3 129.1 751.5 129.1 754.1 129.5C756.7 129.9 758.8 130.2 761 130.6H760.5Z" fill="#1C5698"></path>
</svg>
