<?xml version="1.0" encoding="UTF-8"?>
<!-- Generator: Adobe Illustrator 28.0.0, SVG Export Plug-In . SVG Version: 6.00 Build 0)  -->
<svg xmlns="http://www.w3.org/2000/svg" xmlns:xlink="http://www.w3.org/1999/xlink" version="1.1" id="Layer_1" x="0px" y="0px" viewBox="0 0 310 259" style="enable-background:new 0 0 310 259;" xml:space="preserve">
<style type="text/css">
	.st0{display:none;fill:#003582;}
	.st1{display:none;}
	.st2{display:inline;}
	.st3{clip-path:url(#SVGID_00000169550052950696668850000015279213989139427456_);}
	.st4{opacity:5.000000e-02;fill:url(#SVGID_00000069385176685774539430000003543640746084651673_);enable-background:new    ;}
	.st5{opacity:5.000000e-02;fill:url(#SVGID_00000183207641188225966520000004193253630085462414_);enable-background:new    ;}
	.st6{opacity:5.000000e-02;fill:url(#SVGID_00000044873581876424966090000014918379211022735028_);enable-background:new    ;}
	.st7{opacity:5.000000e-02;fill:url(#SVGID_00000174585138959602549080000002247769517797111464_);enable-background:new    ;}
	.st8{opacity:5.000000e-02;fill:url(#SVGID_00000160181467287448207280000004595715229341764025_);enable-background:new    ;}
	.st9{display:none;fill:url(#SVGID_00000125596612896145180340000001420292171205427365_);}
	.st10{opacity:0.9;}
	.st11{fill:#B9E2FC;}
	.st12{opacity:0.7;}
	.st13{fill:#C5E5FC;}
	.st14{fill:#FFFFFF;}
	.st15{fill:url(#SVGID_00000178902426206487111750000000963011373963627905_);}
	.st16{fill:#0D5DA5;}
	.st17{fill:#D8E7FF;}
	.st18{fill:#025DA5;}
	.st19{fill:#005DA5;}
	.st20{fill:none;}
	.st21{fill:#9BACCC;}
	.st22{fill:#D6E6FF;}
	.st23{fill:#0D5FA7;}
	.st24{fill:#005CA4;}
	.st25{fill:#0D65AA;}
	.st26{fill:#025392;}
	.st27{fill:#0061A0;}
	.st28{fill:#DDE9FE;}
	.st29{fill-rule:evenodd;clip-rule:evenodd;fill:#025DA5;}
	.st30{fill-rule:evenodd;clip-rule:evenodd;fill:#D8E7FF;}
	.st31{fill-rule:evenodd;clip-rule:evenodd;fill:#FFFFFF;}
	.st32{fill-rule:evenodd;clip-rule:evenodd;fill:#045EA6;}
	.st33{fill:#025BA4;}
	.st34{fill-rule:evenodd;clip-rule:evenodd;fill:#D6E6FF;}
	.st35{fill:#D9E4F8;}
	.st36{clip-path:url(#SVGID_00000032639869358524991530000008925955285775267208_);}
	.st37{fill:#012970;}
	.st38{fill:#045EA6;}
	.st39{fill:#FBFDFF;}
	.st40{fill:#CEECF9;}
	.st41{fill:#0F4D91;}
</style>
<path class="st0" d="M-611-64H410c21,0,38,17,38,38v300c0,21-17,38-38,38H-611c-21,0-38-17-38-38V-26C-649-47-632-64-611-64z"></path>
<g class="st1">
	<g class="st2">
		<g>
			<defs>
				<path id="SVGID_1_" d="M-611-64H410c21,0,38,17,38,38v300c0,21-17,38-38,38H-611c-21,0-38-17-38-38V-26C-649-47-632-64-611-64z"></path>
			</defs>
			<clipPath id="SVGID_00000139278611161295708700000012168693321391810483_">
				<use xlink:href="#SVGID_1_" style="overflow:visible;"></use>
			</clipPath>
			<g style="clip-path:url(#SVGID_00000139278611161295708700000012168693321391810483_);">
				
					<linearGradient id="SVGID_00000023250010651838017530000015339254728383272577_" gradientUnits="userSpaceOnUse" x1="652.3405" y1="129.1" x2="-22.7859" y2="129.1" gradientTransform="matrix(1 0 0 1 0 -162)">
					<stop offset="0" style="stop-color:#F6F8FA"></stop>
					<stop offset="1" style="stop-color:#B8E1FC;stop-opacity:0"></stop>
				</linearGradient>
				
					<polygon style="opacity:5.000000e-02;fill:url(#SVGID_00000023250010651838017530000015339254728383272577_);enable-background:new    ;" points="      561,-31.6 -21.8,44.5 -26.5,18.9 546.6,-110.3     "></polygon>
				
					<linearGradient id="SVGID_00000005961778310404187860000010290173890772487575_" gradientUnits="userSpaceOnUse" x1="652.3405" y1="205.05" x2="-22.7859" y2="205.05" gradientTransform="matrix(1 0 0 1 0 -162)">
					<stop offset="5.327789e-09" style="stop-color:#F6F8FA"></stop>
					<stop offset="1" style="stop-color:#B8E1FC;stop-opacity:0"></stop>
				</linearGradient>
				
					<polygon style="opacity:5.000000e-02;fill:url(#SVGID_00000005961778310404187860000010290173890772487575_);enable-background:new    ;" points="      569.2,77.6 -18.5,88.3 -20.3,62.4 563.6,-2.2     "></polygon>
				
					<linearGradient id="SVGID_00000062879440796883662100000012269322127579291010_" gradientUnits="userSpaceOnUse" x1="652.3405" y1="307.2" x2="-22.7859" y2="307.2" gradientTransform="matrix(1 0 0 1 0 -162)">
					<stop offset="0" style="stop-color:#F6F8FA"></stop>
					<stop offset="1" style="stop-color:#B8E1FC;stop-opacity:0"></stop>
				</linearGradient>
				
					<polygon style="opacity:5.000000e-02;fill:url(#SVGID_00000062879440796883662100000012269322127579291010_);enable-background:new    ;" points="      570.2,185.2 -16.1,144.4 -15.6,118.4 571.7,105.2     "></polygon>
				
					<linearGradient id="SVGID_00000042724755418158410430000002402784792657768064_" gradientUnits="userSpaceOnUse" x1="652.3405" y1="387.35" x2="-22.7859" y2="387.35" gradientTransform="matrix(1 0 0 1 0 -162)">
					<stop offset="0" style="stop-color:#F6F8FA"></stop>
					<stop offset="1" style="stop-color:#B8E1FC;stop-opacity:0"></stop>
				</linearGradient>
				
					<polygon style="opacity:5.000000e-02;fill:url(#SVGID_00000042724755418158410430000002402784792657768064_);enable-background:new    ;" points="      555.8,291.9 -22,184.6 -18.6,158.8 566.4,212.6     "></polygon>
				
					<linearGradient id="SVGID_00000090995430802519614740000011625255032630797759_" gradientUnits="userSpaceOnUse" x1="652.3405" y1="468.2" x2="-22.7859" y2="468.2" gradientTransform="matrix(1 0 0 1 0 -162)">
					<stop offset="0" style="stop-color:#F6F8FA"></stop>
					<stop offset="1" style="stop-color:#B8E1FC;stop-opacity:0"></stop>
				</linearGradient>
				
					<polygon style="opacity:5.000000e-02;fill:url(#SVGID_00000090995430802519614740000011625255032630797759_);enable-background:new    ;" points="      536.9,394.7 -31,243.1 -25.6,217.7 553.5,316.5     "></polygon>
			</g>
		</g>
	</g>
</g>
<linearGradient id="SVGID_00000134947189297426033150000006178621887480858558_" gradientUnits="userSpaceOnUse" x1="-34.3" y1="-36.3" x2="448.1" y2="-36.3" gradientTransform="matrix(1 0 0 -1 0 88)">
	<stop offset="2.131116e-08" style="stop-color:#FFFFFF;stop-opacity:0"></stop>
	<stop offset="1" style="stop-color:#0040B3;stop-opacity:0"></stop>
</linearGradient>
<rect x="-34.3" y="-63.4" style="display:none;fill:url(#SVGID_00000134947189297426033150000006178621887480858558_);" width="482.4" height="375.4"></rect>
<g>
	<g class="st10">
		<path class="st11" d="M158.4,73.4h46.7c4.1,0,7.4,3.3,7.4,7.4v46.7c0,4.1-3.3,7.4-7.4,7.4h-46.7c-4.1,0-7.4-3.3-7.4-7.4V80.8    C151,76.7,154.3,73.4,158.4,73.4z"></path>
	</g>
	<g class="st10">
		<path class="st11" d="M49.7,6.4h32c4.1,0,7.4,3.3,7.4,7.4v32c0,4.1-3.3,7.4-7.4,7.4h-32c-4.1,0-7.4-3.3-7.4-7.4v-32    C42.3,9.7,45.6,6.4,49.7,6.4z"></path>
	</g>
	<g class="st12">
		<path class="st13" d="M241.6,74.6h32c4.1,0,7.4,3.3,7.4,7.4v32c0,4.1-3.3,7.4-7.4,7.4h-32c-4.1,0-7.4-3.3-7.4-7.4V82    C234.2,77.9,237.5,74.6,241.6,74.6z"></path>
	</g>
	<g class="st12">
		<path class="st13" d="M47.6,75.8h46.7c4.1,0,7.4,3.3,7.4,7.4v46.7c0,4.1-3.3,7.4-7.4,7.4H47.6c-4.1,0-7.4-3.3-7.4-7.4V83.2    C40.2,79.1,43.5,75.8,47.6,75.8z"></path>
	</g>
	<g class="st12">
		<path class="st13" d="M64.5,171h30.7c4.1,0,7.4,3.3,7.4,7.4v30.7c0,4.1-3.3,7.4-7.4,7.4H64.5c-4.1,0-7.4-3.3-7.4-7.4v-30.7    C57.1,174.3,60.4,171,64.5,171z"></path>
	</g>
	<g class="st10">
		<path class="st11" d="M236.6,149.4h30.7c4.1,0,7.4,3.3,7.4,7.4v30.7c0,4.1-3.3,7.4-7.4,7.4h-30.7c-4.1,0-7.4-3.3-7.4-7.4v-30.7    C229.2,152.7,232.5,149.4,236.6,149.4z"></path>
	</g>
	<g class="st12">
		<path class="st13" d="M151.6,156.2h59.1c4.1,0,7.4,3.3,7.4,7.4v59.1c0,4.1-3.3,7.4-7.4,7.4h-59.1c-4.1,0-7.4-3.3-7.4-7.4v-59.1    C144.2,159.6,147.5,156.2,151.6,156.2z"></path>
	</g>
	<path class="st14" d="M178.1,188.9c0,4.1-3.3,7.4-7.4,7.4H83.5c-4.1,0-7.4-3.3-7.4-7.4v-87.2c0-4.1,3.3-7.4,7.4-7.4h87.2   c4.1,0,7.4,3.3,7.4,7.4V188.9z"></path>
	<path class="st14" d="M259.9,160.9c0,4.1-3.3,7.4-7.4,7.4h-59.1c-4.1,0-7.4-3.3-7.4-7.4v-59.1c0-4.1,3.3-7.4,7.4-7.4h59.1   c4.1,0,7.4,3.3,7.4,7.4V160.9z"></path>
	<path class="st14" d="M241.7,227.6c0,4.1-3.3,7.4-7.4,7.4h-40.9c-4.1,0-7.4-3.3-7.4-7.4v-40.9c0-4.1,3.3-7.4,7.4-7.4h40.9   c4.1,0,7.4,3.3,7.4,7.4V227.6z"></path>
	
		<linearGradient id="SVGID_00000092446967834036993760000011275268717184469667_" gradientUnits="userSpaceOnUse" x1="98.7994" y1="54.5606" x2="37.6993" y2="-6.5394" gradientTransform="matrix(1 0 0 -1 41.87 76.91)">
		<stop offset="0" style="stop-color:#E3E3E3"></stop>
		<stop offset="1" style="stop-color:#FFFFFF"></stop>
	</linearGradient>
	<path style="fill:url(#SVGID_00000092446967834036993760000011275268717184469667_);" d="M84.2,20h51.4c4.1,0,7.4,3.3,7.4,7.4v51.4   c0,4.1-3.3,7.4-7.4,7.4H84.2c-4.1,0-7.4-3.3-7.4-7.4V27.4C76.8,23.3,80.2,20,84.2,20z"></path>
	<path class="st14" d="M84.2,20h51.4c4.1,0,7.4,3.3,7.4,7.4v51.4c0,4.1-3.3,7.4-7.4,7.4H84.2c-4.1,0-7.4-3.3-7.4-7.4V27.4   C76.8,23.3,80.2,20,84.2,20z"></path>
	<path class="st14" d="M269.8,55.3h22.8c4.1,0,7.4,3.3,7.4,7.4v22.8c0,4.1-3.3,7.4-7.4,7.4h-22.8c-4.1,0-7.4-3.3-7.4-7.4V62.7   C262.5,58.6,265.8,55.3,269.8,55.3z"></path>
	<path class="st14" d="M35.8,197.9h31.4c4.1,0,7.4,3.3,7.4,7.4v31.4c0,4.1-3.3,7.4-7.4,7.4H35.8c-4.1,0-7.4-3.3-7.4-7.4v-31.4   C28.4,201.2,31.7,197.9,35.8,197.9z"></path>
	<path class="st14" d="M175.1,238.9c0,5.5-4.4,10-9.9,10l-18.8,0.1c-5.5,0-10-4.4-10-9.9l-0.1-18.8c0-5.5,4.4-10,9.9-10l18.8-0.1   c5.5,0,10,4.4,10,9.9L175.1,238.9z"></path>
	<path class="st14" d="M291.1,204.3c0,5.2-4.2,9.4-9.3,9.4h-17.6c-5.2,0-9.4-4.2-9.4-9.3l-0.1-17.6c0-5.2,4.2-9.4,9.3-9.4l17.6-0.1   c5.2,0,9.4,4.2,9.4,9.4L291.1,204.3z"></path>
	<path class="st14" d="M14.7,39.3h37.9c2.6,0,4.7,2.1,4.7,4.7v38c0,2.6-2.1,4.7-4.7,4.7H14.7c-2.6,0-4.7-2.1-4.7-4.7V44.1   C9.9,41.4,12,39.3,14.7,39.3z"></path>
	<path class="st14" d="M60.8,142.6c0,5.3-4.2,9.5-9.5,9.6l-17.9,0.1c-5.3,0-9.5-4.2-9.5-9.5v-17.9c0-5.2,4.2-9.5,9.5-9.6l17.9-0.1   c5.2,0,9.5,4.2,9.5,9.5V142.6z"></path>
	<path class="st16" d="M152.8,139.3c-0.5-1.9-1.3-3.7-2.2-5.4c-0.3-0.5-0.3-1.2,0-1.7l1.5-2.3c0.4-0.6,0.3-1.5-0.2-2l-5.3-5.3   c-0.5-0.5-1.4-0.6-2-0.2l-2.3,1.5c-0.5,0.3-1.2,0.3-1.7,0c-1.7-1-3.5-1.7-5.4-2.2c-0.6-0.2-1-0.6-1.1-1.2l-0.5-2.7   c-0.1-0.7-0.8-1.3-1.6-1.3h-7.5c-0.8,0-1.4,0.5-1.6,1.3l-0.5,2.7c-0.1,0.6-0.6,1.1-1.1,1.2c-1.9,0.5-3.7,1.3-5.4,2.2   c-0.5,0.3-1.2,0.3-1.7,0l-2.3-1.5c-0.6-0.4-1.5-0.3-2,0.2l-5.3,5.3c-0.5,0.5-0.6,1.4-0.2,2l1.5,2.3c0.3,0.5,0.4,1.2,0,1.7   c-1,1.7-1.7,3.5-2.2,5.4c-0.2,0.6-0.6,1-1.2,1.1l-2.7,0.5c-0.7,0.1-1.3,0.8-1.3,1.6v7.5c0,0.8,0.5,1.4,1.3,1.6l2.7,0.5   c0.6,0.1,1.1,0.6,1.2,1.1c0.5,1.9,1.3,3.7,2.2,5.4c0.3,0.5,0.3,1.2-0.1,1.7l-1.5,2.3c-0.4,0.6-0.3,1.5,0.2,2l5.3,5.3   c0.5,0.5,1.4,0.6,2,0.2l2.3-1.5c0.5-0.3,1.2-0.4,1.7-0.1c1.7,1,3.5,1.7,5.4,2.2c0.6,0.2,1,0.6,1.2,1.2l0.5,2.7   c0.1,0.8,0.8,1.3,1.6,1.3h7.5c0.8,0,1.4-0.5,1.6-1.3l0.5-2.7c0.1-0.6,0.6-1.1,1.2-1.2c1.9-0.5,3.7-1.3,5.4-2.2   c0.5-0.3,1.2-0.3,1.7,0.1l2.3,1.5c0.6,0.4,1.5,0.3,2-0.2l5.3-5.3c0.5-0.5,0.6-1.4,0.2-2l-1.5-2.3c-0.3-0.5-0.4-1.2-0.1-1.7   c1-1.7,1.7-3.5,2.2-5.4c0.2-0.6,0.6-1,1.2-1.1l2.7-0.5c0.8-0.1,1.3-0.8,1.3-1.6v-7.5c0-0.8-0.5-1.4-1.3-1.6l-2.7-0.5   C153.4,140.3,153,139.8,152.8,139.3z M128.3,162.3c-8.8,0-16-7.2-16-16s7.2-16,16-16s16,7.2,16,16l0,0   C144.3,155.1,137.1,162.3,128.3,162.3z"></path>
	<path class="st17" d="M128.3,125.8c-11.3,0-20.4,9.1-20.4,20.4c0,11.3,9.1,20.4,20.4,20.4c11.3,0,20.4-9.1,20.4-20.4   C148.7,135,139.5,125.8,128.3,125.8z M128.3,162.3c-8.8,0-16-7.2-16-16s7.2-16,16-16s16,7.2,16,16l0,0   C144.3,155.1,137.1,162.3,128.3,162.3z"></path>
	<path class="st16" d="M124,147.1l-2-4.9c-0.2-0.5-0.8-0.8-1.3-0.5c-0.2,0.1-0.4,0.3-0.5,0.5l-2,4.9l-1.3,3.2   c-0.2,0.5,0.1,1.1,0.7,1.2c0.5,0.1,1-0.1,1.2-0.5l1.1-2.6h2.7l1,2.6c0.2,0.5,0.8,0.8,1.3,0.6l0,0c0.5-0.2,0.8-0.8,0.6-1.3   c0,0,0,0,0-0.1L124,147.1z M121.6,146.4h-1l0.5-1.3L121.6,146.4z M136.8,140.9c-0.6,0-1,0.4-1,1v8.8c0,0.6,0.4,1,1,1s1-0.4,1-1   v-8.8C137.8,141.3,137.4,140.9,136.8,140.9z M130.5,140.9H128c-0.6,0-1,0.4-1,1v8.8c0,0.6,0.4,1,1,1s1-0.4,1-1v-3.4h1.4   c1.6,0,3-1,3.3-2.6c0.3-1.7-0.8-3.4-2.6-3.7C130.9,140.9,130.7,140.9,130.5,140.9L130.5,140.9z M130.5,145.3H129v-2.4h1.5   c0.7,0,1.2,0.5,1.2,1.2C131.7,144.7,131.2,145.3,130.5,145.3L130.5,145.3z"></path>
	<path class="st16" d="M230,113.8h-12.7c-2.4,0-4.6,1.3-5.8,3.4l-6.3,11c-1.2,2.1-1.2,4.6,0,6.7l6.3,10.9c1.2,2.1,3.4,3.4,5.8,3.4   H230c2.4,0,4.6-1.3,5.8-3.4l6.3-10.9c1.2-2.1,1.2-4.6,0-6.7l-6.3-11C234.6,115.1,232.4,113.8,230,113.8z"></path>
	<path class="st14" d="M214.7,136.9v-3.5c0-0.9-0.2-1.1-1.2-1.1v-1.7c0.9,0,1.2-0.3,1.2-1.1V126c-0.1-1.1,0.7-2,1.7-2.1   c0.1,0,0.2,0,0.4,0h1v1.7h-0.3c-0.7,0-1,0.3-1,1.3v2.8c0.1,0.8-0.4,1.5-1.2,1.7l0,0c0.7,0.2,1.2,0.9,1.2,1.7v2.9c0,1,0.3,1.3,1,1.3   h0.3v1.7h-1c-1.1,0.1-2-0.7-2.1-1.8C214.7,137.1,214.7,137,214.7,136.9z"></path>
	<path class="st14" d="M219.1,130.5h2v2h-2V130.5z"></path>
	<path class="st14" d="M222.6,130.5h2v2h-2V130.5z"></path>
	<path class="st14" d="M226.2,130.5h2v2h-2V130.5z"></path>
	<path class="st14" d="M229.4,137.3h0.3c0.7,0,1-0.3,1-1.3v-2.8c-0.1-0.8,0.4-1.5,1.2-1.7l0,0c-0.7-0.2-1.2-0.9-1.2-1.7V127   c0-1-0.3-1.3-1-1.3h-0.3V124h1.1c1.1-0.1,2,0.7,2.1,1.8c0,0.1,0,0.2,0,0.3v3.5c0,0.9,0.2,1.1,1.2,1.1v1.7c-1,0-1.2,0.3-1.2,1.1v3.5   c0.1,1.1-0.7,2-1.8,2.1c-0.1,0-0.2,0-0.3,0h-1.1V137.3z"></path>
	<path class="st17" d="M117.1,56.1l-2.5,0.8c-0.3,1.2-0.7,2.4-1.4,3.4l1.2,2.3c0.1,0.3,0.1,0.6-0.1,0.8l-1.2,1.2   c-0.2,0.2-0.5,0.3-0.8,0.1l-2.3-1.2c-1,0.7-2.2,1.1-3.4,1.4l-0.8,2.4c-0.1,0.3-0.3,0.5-0.6,0.5h-1.7c-0.3,0-0.5-0.2-0.6-0.5L102,65   c-1.2-0.3-2.4-0.7-3.4-1.4l-2.3,1.2c-0.3,0.1-0.6,0.1-0.8-0.1l-1.2-1.2c-0.2-0.2-0.2-0.5-0.1-0.8l1.2-2.3c-0.7-1-1.1-2.2-1.4-3.4   l-2.5-0.8c-0.3-0.1-0.5-0.3-0.5-0.6v-1.7c0-0.3,0.2-0.5,0.5-0.6l2.5-0.8c0.3-1.2,0.7-2.4,1.4-3.4l-1.2-2.3   c-0.1-0.3-0.1-0.6,0.1-0.8l1.2-1.2c0.2-0.2,0.5-0.3,0.8-0.1l2.3,1.2c1-0.7,2.2-1.1,3.4-1.4l0.8-2.4c0.1-0.3,0.3-0.5,0.6-0.4h1.7   c0.3,0,0.5,0.2,0.6,0.4l0.8,2.4c1.2,0.3,2.4,0.7,3.4,1.4l2.3-1.2c0.3-0.1,0.6-0.1,0.8,0.1l1.2,1.2c0.2,0.2,0.3,0.5,0.1,0.8   l-1.2,2.3c0.7,1,1.2,2.2,1.4,3.4l2.5,0.8c0.3,0.1,0.5,0.3,0.5,0.6v1.7C117.6,55.8,117.4,56,117.1,56.1L117.1,56.1z"></path>
	<path class="st18" d="M111,54.6c0,3.7-3,6.6-6.6,6.6s-6.6-3-6.6-6.6c0-3.7,3-6.6,6.6-6.6l0,0C108,47.9,111,50.9,111,54.6z"></path>
	<path class="st14" d="M103,58.6c-0.4,0-0.7-0.1-0.9-0.4l-2-2c-0.5-0.5-0.5-1.4,0.1-1.9c0.5-0.5,1.3-0.5,1.8,0l1,1l3.7-3.7   c0.5-0.5,1.3-0.6,1.9-0.1s0.6,1.3,0.1,1.9c0,0,0,0-0.1,0.1l-4.7,4.7C103.6,58.4,103.3,58.5,103,58.6L103,58.6z"></path>
	<path class="st18" d="M128.2,42.2v0.9c0,0.5-0.4,0.9-0.8,0.9l0,0c-0.4,0-0.7,0.2-0.8,0.6l-0.1,0.3c-0.2,0.3-0.1,0.7,0.2,1   s0.3,0.9,0,1.2l-0.7,0.7c-0.3,0.3-0.9,0.3-1.2,0l0,0l0,0c-0.3-0.3-0.7-0.3-1-0.2l-0.3,0.1c-0.3,0.1-0.6,0.5-0.6,0.8   c0,0.5-0.4,0.9-0.8,0.9l0,0h-0.9c-0.5,0-0.9-0.4-0.9-0.9c0-0.4-0.2-0.7-0.6-0.8l-0.3-0.1c-0.3-0.2-0.7-0.1-1,0.2l0,0   c-0.3,0.3-0.9,0.3-1.2,0l0,0l-0.7-0.7c-0.3-0.3-0.3-0.9,0-1.2l0,0c0.3-0.3,0.3-0.7,0.2-1l-0.1-0.3c-0.1-0.3-0.5-0.6-0.8-0.6   c-0.5,0-0.9-0.4-0.9-0.9v-0.9c0-0.5,0.4-0.9,0.9-0.9c0.4,0,0.7-0.2,0.8-0.6l0.1-0.3c0.2-0.3,0.1-0.7-0.2-1l0,0   c-0.3-0.3-0.3-0.9,0-1.2l0,0l0.7-0.7c0.3-0.3,0.9-0.3,1.2,0l0,0l0,0c0.3,0.3,0.7,0.3,1,0.2l0.3-0.1c0.3-0.1,0.6-0.4,0.6-0.8   c0-0.5,0.4-0.9,0.9-0.9h0.9c0.5,0,0.9,0.4,0.9,0.9c0,0.4,0.2,0.7,0.6,0.8l0.3,0.1c0.3,0.2,0.7,0.1,1-0.2l0,0c0.3-0.3,0.9-0.3,1.2,0   l0,0l0.7,0.7c0.3,0.3,0.3,0.9,0,1.2l0,0c-0.3,0.3-0.3,0.7-0.2,1l0.1,0.3c0.1,0.3,0.4,0.6,0.8,0.6C127.8,41.3,128.2,41.7,128.2,42.2   L128.2,42.2z M123.6,42.8c0.1-1.1-0.7-2.1-1.8-2.2s-2.1,0.7-2.2,1.8c-0.1,1.1,0.7,2.1,1.8,2.2c0.1,0,0.2,0,0.3,0   C122.7,44.5,123.5,43.8,123.6,42.8z"></path>
	<path class="st18" d="M128.2,66.1V67c0,0.5-0.4,0.9-0.8,0.9l0,0c-0.4,0-0.7,0.2-0.8,0.6l-0.1,0.3c-0.2,0.3-0.1,0.7,0.2,1   s0.3,0.9,0,1.2l-0.7,0.6c-0.3,0.3-0.9,0.3-1.2,0l0,0l0,0c-0.3-0.3-0.7-0.3-1-0.2l-0.3,0.1c-0.3,0.1-0.6,0.4-0.6,0.8   c0,0.5-0.4,0.9-0.8,0.9l0,0h-0.9c-0.5,0-0.9-0.4-0.9-0.9c0-0.4-0.2-0.7-0.6-0.8l-0.3-0.1c-0.3-0.2-0.7-0.1-1,0.2l0,0   c-0.3,0.3-0.9,0.3-1.2,0l0,0l-0.7-0.6c-0.3-0.3-0.3-0.9,0-1.2s0.3-0.7,0.2-1l-0.1-0.3c-0.1-0.3-0.4-0.6-0.8-0.6   c-0.5,0-0.9-0.4-0.9-0.9v-0.9c0-0.5,0.4-0.9,0.9-0.9c0.4,0,0.7-0.2,0.8-0.6l0.1-0.3c0.2-0.3,0.1-0.7-0.2-1l0,0   c-0.3-0.3-0.3-0.9,0-1.2l0.7-0.7c0.3-0.3,0.9-0.3,1.2,0l0,0l0,0c0.3,0.3,0.7,0.3,1,0.2c0.1,0,0.2-0.1,0.3-0.1   c0.3-0.1,0.6-0.4,0.6-0.8c0-0.5,0.4-0.9,0.9-0.9h0.9c0.5,0,0.9,0.4,0.9,0.9l0,0c0,0.4,0.2,0.7,0.6,0.8c0.1,0,0.2,0.1,0.3,0.1   c0.3,0.2,0.7,0.1,1-0.2l0,0c0.3-0.3,0.9-0.3,1.2,0l0,0l0.7,0.7c0.3,0.3,0.3,0.9,0,1.2l0,0c-0.3,0.3-0.3,0.7-0.2,1l0.1,0.3   c0.1,0.3,0.5,0.6,0.8,0.6C127.8,65.2,128.2,65.6,128.2,66.1L128.2,66.1L128.2,66.1z M123.6,66.7c0.1-1.1-0.7-2.1-1.8-2.2   c-1.1-0.1-2.1,0.7-2.2,1.8c-0.1,1.1,0.7,2.1,1.8,2.2c0.1,0,0.2,0,0.3,0C122.7,68.4,123.5,67.7,123.6,66.7z"></path>
	<path class="st19" d="M282.2,64.2c0-0.1-0.1-0.1-0.2-0.1c-0.7-0.1-1.5-0.1-2.2,0c-0.1,0-0.1,0.1-0.2,0.1l-0.4,1.1   c-0.5,0.1-1.1,0.4-1.5,0.6l-1.1-0.5c-0.1,0-0.2,0-0.2,0c-0.6,0.4-1.1,1-1.6,1.6c0,0.1,0,0.1,0,0.2l0.5,1.1c-0.3,0.5-0.5,1-0.6,1.5   l-1.1,0.4c-0.1,0-0.1,0.1-0.1,0.2c-0.1,0.7-0.1,1.5,0,2.2c0,0.1,0.1,0.1,0.1,0.2l1.1,0.4c0.1,0.5,0.4,1.1,0.6,1.5l-0.5,1.1   c0,0.1,0,0.1,0,0.2c0.4,0.6,1,1.1,1.6,1.6c0.1,0,0.1,0,0.2,0l1.1-0.5c0.5,0.3,1,0.5,1.5,0.6l0.4,1.1c0,0.1,0.1,0.1,0.2,0.1   c0.7,0.1,1.5,0.1,2.2,0c0.1,0,0.1-0.1,0.2-0.1l0.4-1.1c0.5-0.1,1.1-0.4,1.5-0.6l1.1,0.5c0.1,0,0.2,0,0.2,0c0.6-0.4,1.1-1,1.6-1.6   c0-0.1,0-0.2,0-0.2l-0.5-1.1c0.3-0.5,0.5-1,0.6-1.5l1.1-0.4c0.1,0,0.1-0.1,0.1-0.2c0.1-0.7,0.1-1.5,0-2.2c0-0.1-0.1-0.1-0.1-0.2   l-1.1-0.4c-0.1-0.5-0.4-1.1-0.6-1.5l0.5-1.1c0-0.1,0-0.2,0-0.2c-0.4-0.6-1-1.1-1.5-1.6c-0.1,0-0.2,0-0.2,0l-1.1,0.5   c-0.5-0.3-1-0.5-1.5-0.6L282.2,64.2L282.2,64.2z M280.9,67.3c2.4,0,4.3,1.9,4.2,4.3c0,2.4-1.9,4.3-4.3,4.2c-2.4,0-4.3-1.9-4.2-4.3   C276.6,69.2,278.5,67.3,280.9,67.3L280.9,67.3z"></path>
	<circle class="st14" cx="280.9" cy="71.6" r="4.3"></circle>
	<path class="st19" d="M282.8,69.8c-0.2-0.2-0.4-0.2-0.6,0c-0.1,0.1-0.1,0.2-0.1,0.3s0,0.2,0.1,0.3c0.3,0.3,0.5,0.8,0.5,1.3   c0,1-0.8,1.8-1.8,1.8s-1.8-0.8-1.8-1.8c0-0.5,0.2-0.9,0.5-1.3c0.1-0.1,0.1-0.2,0.1-0.3c0-0.2-0.2-0.4-0.4-0.4c-0.1,0-0.2,0-0.3,0.1   c-1,1.1-1,2.7,0.1,3.7s2.7,1,3.7-0.1C283.8,72.4,283.8,70.8,282.8,69.8z"></path>
	<path class="st19" d="M280.9,69c-0.2,0-0.4,0.2-0.4,0.4l0,0v2.4c0,0.2,0.2,0.4,0.4,0.4s0.4-0.2,0.4-0.4l0,0v-2.4   C281.3,69.2,281.1,69,280.9,69L280.9,69L280.9,69z"></path>
	<path class="st17" d="M286.7,75.6v3.6c0,1.5-1.2,2.8-2.8,2.8h-2.7c-2-0.1-3.5-1.7-3.5-3.7c0-0.1,0-0.2,0-0.3c0-0.9,0.8-1.6,1.7-1.6   l0,0c0.2,0,0.4,0.1,0.5,0.3v-5c0-0.5,0.4-0.8,0.8-0.8l0,0c0.2,0,0.4,0.1,0.5,0.2c0.2,0.2,0.3,0.4,0.3,0.6v2.8   c0-0.5,0.4-0.8,0.8-0.8c0.2,0,0.4,0.1,0.6,0.2c0.2,0.2,0.3,0.4,0.3,0.6V75c0-0.5,0.4-0.8,0.8-0.8c0.2,0,0.4,0.1,0.5,0.2   c0.2,0.2,0.3,0.4,0.3,0.6v0.6c0-0.2,0.1-0.5,0.3-0.6s0.3-0.2,0.5-0.2C286.3,74.7,286.7,75.1,286.7,75.6L286.7,75.6L286.7,75.6z"></path>
	<rect x="277.8" y="68.6" class="st20" width="8.9" height="13.4"></rect>
	<path class="st21" d="M280,76.7v1.1c0,0.2-0.2,0.3-0.3,0.2c-0.1,0-0.2-0.1-0.2-0.2v-1.4l0,0C279.7,76.4,279.9,76.5,280,76.7   L280,76.7z M285.3,75v1.5c-0.2,0-0.3-0.1-0.3-0.3l0,0v-0.6C285,75.4,285.1,75.1,285.3,75L285.3,75z M283.6,74.4v2   c-0.2,0-0.3-0.1-0.3-0.3l0,0V75C283.3,74.8,283.4,74.5,283.6,74.4L283.6,74.4z M282,73.9v2.6c-0.2,0-0.3-0.1-0.3-0.3l0,0v-1.7   C281.7,74.3,281.8,74,282,73.9L282,73.9z"></path>
	<path class="st22" d="M279.3,203.5h-2.2v-12.6h2.2c0.2,0,0.3-0.2,0.3-0.4s-0.2-0.3-0.3-0.3h-2.2v-1.8c0-0.2-0.2-0.4-0.3-0.4   c-0.2,0-0.4,0.2-0.4,0.4v1.8h-10.8v-1.8c0-0.2-0.1-0.4-0.3-0.4s-0.4,0.1-0.4,0.3v0.1v1.8h-2.2c-0.2,0-0.3,0.2-0.3,0.4   s0.2,0.3,0.3,0.3h2.2v12.6h-2.2c-0.2,0-0.3,0.2-0.3,0.4c0,0.1,0.1,0.3,0.3,0.3h2.2v1.8c0,0.2,0.2,0.3,0.4,0.3   c0.1,0,0.3-0.1,0.3-0.3v-1.8h10.9v1.8c0,0.2,0.2,0.4,0.3,0.4c0.2,0,0.4-0.2,0.4-0.4v-1.8h2.2c0.2,0,0.4-0.1,0.4-0.3   c0-0.2-0.1-0.4-0.3-0.4C279.4,203.4,279.4,203.4,279.3,203.5z M265.5,203.5v-12.6h10.9v12.6H265.5z"></path>
	<path class="st23" d="M276.4,193.2l-4.7-2.7c-0.4-0.2-1-0.2-1.4,0l-4.7,2.7c-0.4,0.3-0.7,0.7-0.7,1.2v5.4c0,0.5,0.3,1,0.7,1.2   l4.7,2.7c0.4,0.3,1,0.3,1.4,0l4.7-2.7c0.4-0.2,0.7-0.7,0.7-1.2v-5.4C277.1,193.9,276.8,193.4,276.4,193.2z M274.2,195.7v2.9   c0,0.3-0.1,0.5-0.4,0.6l-2.5,1.4c-0.2,0.1-0.5,0.1-0.7,0l-2.5-1.4c-0.2-0.1-0.4-0.4-0.4-0.6v-2.9c0-0.3,0.1-0.5,0.4-0.6l2.5-1.4   c0.2-0.1,0.5-0.1,0.7,0l2.5,1.4C274,195.2,274.2,195.4,274.2,195.7L274.2,195.7z"></path>
	<path class="st24" d="M276.4,193.2l-4.7-2.7c-0.4-0.2-0.8-0.2-1.2-0.1l0.2,0.1l4.7,2.7c0.4,0.3,0.7,0.7,0.7,1.2v5.4   c0,0.5-0.3,1-0.7,1.2l-4.7,2.7c-0.1,0-0.1,0.1-0.2,0.1c0.2,0.1,0.4,0.1,0.5,0.1c0.2,0,0.5-0.1,0.7-0.2l4.7-2.7   c0.4-0.2,0.7-0.7,0.7-1.2v-5.4C277.1,193.9,276.8,193.4,276.4,193.2L276.4,193.2z"></path>
	<path class="st23" d="M285.1,191.1c0.7,0.7,0.7,1.9,0,2.6l-0.6,0.5l-2.7-2.6l0.6-0.6C283.2,190.4,284.4,190.4,285.1,191.1z"></path>
	<path class="st23" d="M285.1,191.1c-0.1-0.1-0.1-0.1-0.2-0.2c0.3,0.7,0.1,1.6-0.5,2.1l-0.5,0.6l0.7,0.7l0.6-0.5   C285.8,193.1,285.8,191.9,285.1,191.1z"></path>
	<path class="st22" d="M281,192.6l-6,6.1l-1.1,3.2c-0.1,0.3,0,0.5,0.3,0.6c0.1,0,0.2,0,0.3,0l3.2-1.1l6.1-6.1L281,192.6z"></path>
	<path class="st22" d="M282.9,194.4l-6.1,6.1l-2.9,1.5c-0.1,0-0.1,0-0.2,0c0,0.3,0.2,0.5,0.5,0.5h0.1l3.2-1.1l6.1-6.1L282.9,194.4z"></path>
	<path class="st22" d="M275,198.6c1.1-0.2,1.5,0.2,1.3,1.3c1.1-0.2,1.5,0.2,1.3,1.3l6.1-6.1l-2.7-2.6L275,198.6z"></path>
	<path class="st25" d="M274.2,200.7l-0.4,1.1c-0.1,0.3,0,0.5,0.3,0.6c0.1,0,0.2,0,0.3,0l1.1-0.4L274.2,200.7z"></path>
	<path class="st26" d="M273.8,202c0,0.2,0.2,0.4,0.5,0.5c0.1,0,0.1,0,0.2,0l1.1-0.4l-0.6-0.6l-1,0.5C273.9,202,273.8,202,273.8,202z   "></path>
	<path class="st27" d="M281,192.6l-6,6.1c1.1-0.2,1.5,0.2,1.3,1.3l6.1-6.1L281,192.6z"></path>
	<path class="st28" d="M285,194l-2.7-2.7c-0.4-0.3-0.9-0.3-1.3,0.1c-0.3,0.3-0.3,0.8,0,1.2l2.7,2.7c0.3,0.4,0.9,0.4,1.3,0.1   C285.4,195,285.4,194.5,285,194C285.1,194.1,285,194,285,194z"></path>
	<path class="st22" d="M285,194l-0.8-0.8c0.3,0.3,0.2,0.8-0.1,1.1c-0.3,0.3-0.8,0.4-1.1,0.1l0.8,0.8c0.3,0.4,0.9,0.4,1.3,0.1   C285.4,195,285.4,194.5,285,194C285.1,194.1,285,194,285,194z"></path>
	<path class="st29" d="M65,214.5v-2.3c0-0.9-0.7-1.6-1.6-1.6H46.6l2.5,3.9H65z"></path>
	<path class="st30" d="M40.3,209.8h7.4l3,4.6H65v16c0,0.9-0.7,1.6-1.7,1.6l0,0H40.2c-0.9,0-1.7-0.7-1.7-1.6v-19   C38.7,210.6,39.4,209.8,40.3,209.8z"></path>
	<path class="st31" d="M45.1,232.1h-4.8c-0.9,0-1.7-0.7-1.7-1.6V212h1c3,0,5.4,0.2,5.4,0.5L45.1,232.1L45.1,232.1z"></path>
	<path class="st32" d="M40.3,209.8h7.4l3,4.6H38.6v-3C38.7,210.6,39.4,209.8,40.3,209.8z"></path>
	<path class="st14" d="M40.6,211.7c-0.2,0-0.4,0.2-0.4,0.5c0,0.2,0.2,0.4,0.4,0.4h0.5c0.2,0,0.4-0.2,0.4-0.5l0,0   c0-0.2-0.2-0.4-0.4-0.4l0,0H40.6z"></path>
	<path class="st14" d="M43.6,211.7c-0.2,0-0.5,0.2-0.5,0.4c0,0.2,0.2,0.5,0.4,0.5l0,0H44c0.2,0,0.5-0.2,0.5-0.4   c0-0.2-0.2-0.5-0.4-0.5l0,0H43.6z"></path>
	<path class="st14" d="M46.5,211.7c-0.2,0-0.4,0.2-0.4,0.5c0,0.2,0.2,0.4,0.4,0.4H47c0.2,0,0.4-0.2,0.4-0.5c0-0.2-0.2-0.4-0.4-0.4   H46.5z"></path>
	<path class="st14" d="M53.2,212c-0.3,0-0.5,0.2-0.5,0.5c0,0.2,0.2,0.4,0.5,0.4h7.2c0.3,0,0.5-0.2,0.5-0.5c0-0.2-0.2-0.4-0.5-0.5   h-7.2V212z"></path>
	<path class="st33" d="M41,217.5c-0.2,0-0.4,0.3-0.4,0.5s0.2,0.3,0.4,0.4h1.7c0.2,0,0.4-0.3,0.4-0.5s-0.2-0.3-0.4-0.4H41z M41,220   c-0.2,0-0.4,0.2-0.4,0.4s0.2,0.4,0.4,0.4h1.7c0.2,0,0.4-0.2,0.4-0.4s-0.2-0.4-0.4-0.4H41z M41,222.5c-0.2,0-0.4,0.2-0.4,0.4   s0.2,0.4,0.4,0.4h1.7c0.2,0,0.4-0.2,0.4-0.4s-0.2-0.4-0.4-0.4H41z M41,225c-0.2,0-0.4,0.3-0.4,0.5s0.2,0.3,0.4,0.4h1.7   c0.2,0,0.4-0.3,0.4-0.5s-0.2-0.3-0.4-0.4H41z"></path>
	<path class="st29" d="M54.3,220.8c1.5,0,2.6,1.2,2.6,2.6l0,0c0,0.2,0,0.4-0.1,0.6h3.6v-0.6c0-3.4-2.8-6.2-6.2-6.2h-0.6v3.6   C53.9,220.8,54.1,220.8,54.3,220.8z"></path>
	<path class="st29" d="M54.3,226v3c2.9,0,5.3-2.2,5.6-5h-3C56.6,225.2,55.5,226,54.3,226z"></path>
	<path class="st32" d="M48.7,223.4c0,3.1,2.5,5.6,5.6,5.6v-3c-1.4,0-2.6-1.2-2.6-2.6H48.7z"></path>
	<path class="st34" d="M53.7,217.8c-2.8,0.3-5,2.7-5,5.6l0,0h3l0,0c0-1.2,0.8-2.3,2-2.6V217.8z"></path>
	<path class="st19" d="M227,202c0,15.9-11,20.1-12.6,20.7c-0.1,0-0.2,0-0.4,0c-1.6-0.5-12.6-4.8-12.6-20.7c-0.1-1.8,0.2-3.6,0.9-5.3   c0.1-0.2,0.4-0.4,0.6-0.3c6.4,1,9.7-1.9,10.8-3.1c0.2-0.2,0.6-0.3,0.8-0.1l0,0l0.1,0.1c1.1,1.3,4.5,4.2,10.8,3.1   c0.3,0,0.5,0.1,0.6,0.3C226.8,198.4,227.1,200.2,227,202z"></path>
	<path class="st35" d="M214.2,220.5c-2.1-0.9-4-2.2-5.6-3.9c-3.4-3.6-5.2-8.5-5.2-14.7c0-1.2,0.1-2.3,0.4-3.5   c0.6,0.1,1.1,0.1,1.7,0.1c3.2,0.1,6.2-1,8.7-3c2.4,2,5.5,3.1,8.7,3c0.6,0,1.1,0,1.7-0.1c0.3,1.1,0.4,2.3,0.4,3.5   c0,6.1-1.7,11.1-5.2,14.7C218.3,218.3,216.4,219.7,214.2,220.5L214.2,220.5z"></path>
	<path class="st19" d="M211.9,213.3l-3.1-2.7c-0.2-0.2-0.3-0.6-0.1-0.8l0,0l0,0l1-1.1c0.2-0.2,0.6-0.3,0.8,0l1.5,1.3l5.5-7.4   c0.2-0.3,0.5-0.3,0.8-0.1l1.2,0.9c0.3,0.2,0.3,0.6,0.1,0.8l0,0l-6.7,9.1C212.7,213.5,212.2,213.6,211.9,213.3L211.9,213.3   L211.9,213.3z"></path>
	<path class="st22" d="M21.3,51.6h22.8c0.5,0,0.8,0.4,0.8,0.8v22.9c0,0.5-0.4,0.9-0.8,0.9H21.3c-0.5,0-0.8-0.4-0.8-0.9V52.4   C20.5,52,20.9,51.6,21.3,51.6z"></path>
	<g>
		<g>
			<g>
				<defs>
					<path id="SVGID_00000083805024846264449570000003452663436967713665_" d="M21.3,51.6h22.8c0.5,0,0.8,0.4,0.8,0.8v22.9       c0,0.5-0.4,0.9-0.8,0.9H21.3c-0.5,0-0.8-0.4-0.8-0.9V52.4C20.5,52,20.9,51.6,21.3,51.6z"></path>
				</defs>
				<clipPath id="SVGID_00000142144249565538246190000017504039969058718652_">
					<use xlink:href="#SVGID_00000083805024846264449570000003452663436967713665_" style="overflow:visible;"></use>
				</clipPath>
				<g style="clip-path:url(#SVGID_00000142144249565538246190000017504039969058718652_);">
					<path class="st22" d="M40.8,76.2h-2.1l-0.8-0.9V52.4l6.7,1.2c0.3,0.1,0.5,0.3,0.4,0.6l-3.7,21.5C41.3,76,41,76.2,40.8,76.2       L40.8,76.2z"></path>
				</g>
			</g>
		</g>
	</g>
	<path class="st37" d="M37.9,52.4v22.9l0.8,0.9h0.8V52.8L37.9,52.4z"></path>
	<path class="st38" d="M21,51.6h16.3c0.8,0,1.4,0.6,1.4,1.4l0,0v21.8c0,0.8-0.6,1.4-1.4,1.4l0,0H21.8c-0.8,0-1.4-0.6-1.4-1.4l0,0   V52.1C20.5,51.8,20.7,51.6,21,51.6L21,51.6L21,51.6z"></path>
	<path class="st39" d="M23.7,63.9h2.1c0.6,0,1.1,0.5,1.1,1.1l0,0v2.1c0,0.6-0.5,1.1-1.1,1.1h-2.1c-0.6,0-1.1-0.5-1.1-1l0,0V65   C22.6,64.4,23.1,63.9,23.7,63.9C23.6,63.9,23.7,63.9,23.7,63.9L23.7,63.9z"></path>
	<path class="st39" d="M23.7,70.3h2.1c0.6,0,1.1,0.5,1.1,1.1v2.1c0,0.6-0.5,1.1-1.1,1.1h-2.1c-0.6,0-1.1-0.5-1.1-1l0,0v-2.1   C22.6,70.7,23.1,70.3,23.7,70.3C23.6,70.3,23.7,70.3,23.7,70.3z"></path>
	<path class="st40" d="M25.1,67.3c-0.1,0-0.2,0-0.3-0.1l-1.3-1.3l0.6-0.6l1,0.9l2.2-2.6l0.7,0.6l-2.5,3   C25.4,67.3,25.3,67.3,25.1,67.3L25.1,67.3z M25.1,73.6c-0.1,0-0.2,0-0.3-0.1l-1.3-1.3l0.6-0.6l1,1l2.2-2.6l0.7,0.6l-2.5,3   C25.4,73.7,25.3,73.7,25.1,73.6L25.1,73.6z"></path>
	<path class="st39" d="M29,69.8h6.4v0.8H29V69.8z M29,72h2.1v0.9H29V72z"></path>
	<path class="st39" d="M31.9,72h3.4v0.9h-3.4V72z M28.9,63.5h6.4v0.8H29L28.9,63.5z M28.9,65.6H31v0.8h-2L28.9,65.6z M31.9,65.6h3.4   v0.8h-3.4V65.6z M22.2,52.9h2.5v0.8h-2.5V52.9z M22.2,54.6h1.7v0.8h-1.7V54.6z M34.9,52.9h0.8v0.8h-0.8V52.9z M36.6,52.9h0.8v0.8   h-0.8V52.9z"></path>
	<path class="st39" d="M27.2,60.7l-0.3-1h-1.7l-0.3,1h-1.5l1.7-5.2h1.8l1.7,5.2H27.2z M26.7,58.6l-0.2-0.9c0-0.2-0.1-0.4-0.2-0.7   s-0.1-0.5-0.2-0.7c0,0.1,0,0.3-0.1,0.6l-0.4,1.6L26.7,58.6z"></path>
	<path class="st39" d="M33.1,57.2c0,0.5-0.2,1-0.5,1.3c-0.4,0.3-0.9,0.5-1.5,0.5h-0.4v1.7h-1.4v-5.2h1.8c0.5,0,1.1,0.1,1.5,0.4   C32.9,56.3,33.1,56.7,33.1,57.2z M30.7,57.9H31c0.2,0,0.4-0.1,0.5-0.2s0.2-0.3,0.2-0.5c0-0.3-0.2-0.5-0.6-0.5h-0.4V57.9z"></path>
	<path class="st39" d="M33.9,60.7v-5.2h1.4v5.2H33.9z"></path>
	<path class="st18" d="M50.1,126.9h-18v-2.4c0-0.3,0.3-0.6,0.6-0.6l0,0h16.8c0.3,0,0.6,0.3,0.6,0.6l0,0L50.1,126.9L50.1,126.9z"></path>
	<path class="st17" d="M49.5,141.3H32.7c-0.3,0-0.6-0.3-0.6-0.6v-13.8h18v13.8C50.1,141,49.8,141.3,49.5,141.3z"></path>
	<circle class="st17" cx="34" cy="125.4" r="0.8"></circle>
	<circle class="st17" cx="36.5" cy="125.4" r="0.8"></circle>
	<circle class="st17" cx="38.8" cy="125.4" r="0.8"></circle>
	<path class="st18" d="M52.7,139.9l1.3-0.3v-1.7l-1.3-0.3c-0.1-0.6-0.4-1.2-0.7-1.7l0.7-1.2l-1.2-1.2l-1.2,0.7   c-0.5-0.3-1.1-0.6-1.7-0.7l-0.3-1.3h-1.7l-0.3,1.3c-0.6,0.1-1.2,0.4-1.7,0.7l-1.2-0.7l-1.2,1.2l0.7,1.2c-0.3,0.5-0.6,1.1-0.7,1.7   l-1.3,0.3v1.7l1.3,0.3c0.1,0.6,0.4,1.2,0.7,1.7l-0.7,1.2l1.2,1.2l1.2-0.7c0.5,0.3,1.1,0.6,1.7,0.7l0.3,1.3h1.7l0.3-1.3   c0.6-0.1,1.2-0.4,1.7-0.7l1.2,0.7l1.2-1.2l-0.7-1.2C52.3,141.1,52.5,140.5,52.7,139.9z"></path>
	<circle class="st17" cx="47.4" cy="138.7" r="4.2"></circle>
	<circle class="st41" cx="47.4" cy="138.7" r="2.4"></circle>
	<path class="st18" d="M35.3,131.7l-0.3,0.7h-0.5l1.3-3.1h0.5l1.3,3.1h-0.5l-0.3-0.7H35.3z M36.7,131.2l-0.6-1.2l-0.5,1.3   L36.7,131.2z"></path>
	<path class="st18" d="M40.2,129.6c0.2,0.2,0.4,0.5,0.3,0.8c0,0.3-0.1,0.6-0.3,0.8c-0.3,0.2-0.6,0.3-1,0.3h-0.5v0.9h-0.5v-3.1h1   C39.6,129.3,39.9,129.4,40.2,129.6z M39.9,130.9c0.1-0.1,0.2-0.3,0.2-0.5s-0.1-0.3-0.2-0.4c-0.2-0.1-0.4-0.1-0.6-0.1h-0.5v1.2h0.6   C39.5,131.1,39.7,131,39.9,130.9z"></path>
	<path class="st18" d="M41.2,129.4h0.5v3.1h-0.5V129.4z"></path>
	<path class="st17" d="M48.3,126h-6.9c-0.3,0-0.6-0.3-0.6-0.6l0,0l0,0c0-0.3,0.3-0.6,0.6-0.6l0,0h6.9c0.3,0,0.6,0.3,0.6,0.6l0,0l0,0   C48.9,125.7,48.7,126,48.3,126L48.3,126z"></path>
	<path class="st16" d="M165.1,227c-0.2-0.7-0.5-1.3-0.8-2c-0.1-0.2-0.1-0.4,0-0.6l0.5-0.8c0.2-0.2,0.1-0.5-0.1-0.7l-1.9-1.9   c-0.2-0.2-0.5-0.2-0.7-0.1l-0.8,0.5c-0.2,0.1-0.4,0.1-0.6,0c-0.6-0.3-1.3-0.6-1.9-0.8c-0.2-0.1-0.4-0.2-0.4-0.4l-0.2-1   c-0.1-0.3-0.3-0.5-0.6-0.5H155c-0.3,0-0.5,0.2-0.6,0.5l-0.2,1c0,0.2-0.2,0.4-0.4,0.4c-0.7,0.2-1.4,0.5-2,0.8   c-0.2,0.1-0.4,0.1-0.6,0l-0.8-0.5c-0.2-0.2-0.5-0.1-0.7,0.1l-1.9,1.9c-0.2,0.2-0.2,0.5-0.1,0.7l0.5,0.8c0.1,0.2,0.1,0.4,0,0.6   c-0.3,0.6-0.6,1.3-0.8,2c-0.1,0.2-0.2,0.4-0.4,0.4l-1,0.2c-0.3,0.1-0.5,0.3-0.5,0.6v2.7c0,0.3,0.2,0.5,0.5,0.6l1,0.2   c0.2,0,0.4,0.2,0.4,0.4c0.2,0.7,0.5,1.3,0.8,1.9c0.1,0.2,0.1,0.4,0,0.6l-0.5,0.8c-0.2,0.2-0.1,0.5,0.1,0.7l1.9,1.9   c0.2,0.2,0.5,0.2,0.7,0.1l0.8-0.5c0.2-0.1,0.4-0.1,0.6,0c0.6,0.4,1.3,0.6,2,0.8c0.2,0.1,0.4,0.2,0.4,0.4l0.2,1   c0.1,0.3,0.3,0.5,0.6,0.5h2.7c0.3,0,0.5-0.2,0.6-0.5l0.2-1c0-0.2,0.2-0.4,0.4-0.4c0.7-0.2,1.3-0.5,2-0.8c0.2-0.1,0.4-0.1,0.6,0   l0.8,0.5c0.2,0.2,0.5,0.1,0.7-0.1l1.9-1.9c0.2-0.2,0.2-0.5,0.1-0.7l-0.5-0.8c-0.1-0.2-0.1-0.4,0-0.6c0.3-0.6,0.6-1.3,0.8-1.9   c0.1-0.2,0.2-0.4,0.4-0.4l1-0.2c0.3-0.1,0.5-0.3,0.5-0.6v-2.7c0-0.3-0.2-0.5-0.5-0.6l-1-0.2C165.4,227.4,165.2,227.2,165.1,227z    M156.3,235.2c-3.2,0-5.7-2.6-5.7-5.7s2.6-5.7,5.7-5.7c3.2,0,5.7,2.6,5.7,5.7l0,0l0,0C162.1,232.7,159.5,235.2,156.3,235.2z"></path>
	<path class="st17" d="M156.3,222.2c-4,0-7.3,3.3-7.3,7.3s3.3,7.3,7.3,7.3s7.3-3.3,7.3-7.3S160.4,222.2,156.3,222.2L156.3,222.2z    M156.3,235.2c-3.2,0-5.7-2.6-5.7-5.7s2.6-5.7,5.7-5.7c3.2,0,5.7,2.6,5.7,5.7l0,0l0,0C162.1,232.7,159.5,235.2,156.3,235.2z"></path>
	<path class="st16" d="M153.8,230.9l-1-1c-0.2-0.2-0.2-0.5,0-0.6l1-1c0.2-0.2,0.5-0.2,0.6,0l0,0l0,0c0.2,0.2,0.2,0.4,0,0.6l0,0   l-0.4,0.4c-0.2,0.2-0.2,0.5,0,0.6l0.4,0.4c0.2,0.2,0.2,0.5,0,0.6l0,0l0,0C154.3,231.1,154,231.1,153.8,230.9L153.8,230.9z"></path>
	<path class="st16" d="M158.6,230.9L158.6,230.9c-0.2-0.2-0.2-0.5,0-0.6l0,0l0.4-0.4c0.2-0.2,0.2-0.5,0-0.6l-0.4-0.4   c-0.2-0.2-0.2-0.4,0-0.6l0,0l0,0c0.2-0.2,0.5-0.2,0.6,0l0,0l1,1c0.2,0.2,0.2,0.5,0,0.6l-1,1C159.1,231.1,158.8,231.1,158.6,230.9   L158.6,230.9z"></path>
	<path class="st16" d="M157.6,226.6l-0.9-0.2l-0.2,1l-0.3,3.2l0.3,1.2L157.6,226.6z"></path>
	<path class="st16" d="M156.3,232.7l0.2-1v-4.4l-1.1,5.2L156.3,232.7z"></path>
</g>
</svg>
